<svg width="256px" height="256px" viewBox="-5.04 -5.04 34.08 34.08" fill="none" xmlns="http://www.w3.org/2000/svg" stroke="#000000" transform="matrix(1, 0, 0, 1, 0, 0)rotate(0)"><g id="SVGRepo_bgCarrier" stroke-width="0" transform="translate(0,0), scale(1)"><path transform="translate(-5.04, -5.04), scale(1.065)" d="M16,31.08381379746339C18.314806270666722,30.87176975368507,18.888238315933005,27.354320354814778,20.967346355029907,26.31480099040521C23.002237206289013,25.297389482890416,25.898625638068836,26.752113567060913,27.625677803241274,25.27116867580576C29.281700682218382,23.851131301209183,29.256038833826846,21.238860603324248,29.4233474965258,19.06379147055337C29.57850226507147,17.04672706742005,29.32649614400468,15.00533255885979,28.559326855713536,13.133415602450427C27.843644672762082,11.387128786601671,26.65232245267206,9.855505048194615,25.170518273438454,8.686755714673026C23.81939296286404,7.621077247593303,22.092588431159818,7.280507853098565,20.457736123373916,6.743415559540647C18.987568745955144,6.260426628435756,17.52356507868348,5.944958540217938,16,5.673997516798622C14.227108469765477,5.358694606430733,12.50079898662326,4.849853792810952,10.707161721788703,5.009308066697152C8.494587773659692,5.206005793286241,6.070587414768223,5.304413050039667,4.350278646053763,6.709657232332784C2.6087814328717656,8.132209318219335,1.2094838113427449,10.411004659056669,1.3466766014147442,12.65547455614442C1.4893086266239548,14.988930175603194,4.289672875110243,16.29104521459878,5.070628419424285,18.494557742451562C5.73534921144638,20.37010700182901,4.44226049433971,22.688065342502718,5.499764294489996,24.37365855213708C6.547671113931273,26.043954790248694,8.912661463931036,26.2050666819009,10.57417059011034,27.266850863787326C12.46114977960939,28.472721251972448,13.769958782755205,31.28809307711158,16,31.08381379746339" fill="#2a7e7d" strokewidth="0"></path></g><g id="SVGRepo_tracerCarrier" stroke-linecap="round" stroke-linejoin="round" stroke="#CCCCCC" stroke-width="0.24000000000000005"> <path opacity="0.5" d="M4.0828 10.8943C4.52171 8.55339 4.74117 7.38295 5.57434 6.69147C6.40752 6 7.59835 6 9.98003 6H14.0209C16.4026 6 17.5934 6 18.4266 6.69147C19.2598 7.38295 19.4792 8.55339 19.9181 10.8943L20.6681 14.8943C21.2853 18.186 21.5939 19.8318 20.6942 20.9159C19.7945 22 18.12 22 14.7709 22H9.23003C5.88097 22 4.20644 22 3.30672 20.9159C2.40701 19.8318 2.7156 18.186 3.3328 14.8943L4.0828 10.8943Z" fill="#00d5ff"></path> <path d="M9.75 5C9.75 3.75736 10.7574 2.75 12 2.75C13.2426 2.75 14.25 3.75736 14.25 5V6C14.25 5.99999 14.25 6.00001 14.25 6C14.816 6.00018 15.3119 6.00174 15.7499 6.01488C15.75 6.00993 15.75 6.00497 15.75 6V5C15.75 2.92893 14.0711 1.25 12 1.25C9.92893 1.25 8.25 2.92893 8.25 5V6C8.25 6.00498 8.25005 6.00995 8.25015 6.01491C8.68814 6.00175 9.18397 6.00021 9.75 6.00002C9.75 6.00002 9.75 6.00003 9.75 6.00002V5Z" fill="#00d5ff"></path> <path d="M15.5857 11.9685C15.8444 11.6451 15.792 11.1731 15.4685 10.9144C15.1451 10.6556 14.6731 10.7081 14.4143 11.0315L10.9375 15.3769L9.53033 13.9697C9.23744 13.6768 8.76256 13.6768 8.46967 13.9697C8.17678 14.2626 8.17678 14.7375 8.46967 15.0304L10.4697 17.0304C10.6205 17.1812 10.8285 17.2607 11.0415 17.2489C11.2545 17.2371 11.4524 17.1351 11.5857 16.9685L15.5857 11.9685Z" fill="#00d5ff"></path> </g><g id="SVGRepo_iconCarrier"> <path opacity="0.5" d="M4.0828 10.8943C4.52171 8.55339 4.74117 7.38295 5.57434 6.69147C6.40752 6 7.59835 6 9.98003 6H14.0209C16.4026 6 17.5934 6 18.4266 6.69147C19.2598 7.38295 19.4792 8.55339 19.9181 10.8943L20.6681 14.8943C21.2853 18.186 21.5939 19.8318 20.6942 20.9159C19.7945 22 18.12 22 14.7709 22H9.23003C5.88097 22 4.20644 22 3.30672 20.9159C2.40701 19.8318 2.7156 18.186 3.3328 14.8943L4.0828 10.8943Z" fill="#00d5ff"></path> <path d="M9.75 5C9.75 3.75736 10.7574 2.75 12 2.75C13.2426 2.75 14.25 3.75736 14.25 5V6C14.25 5.99999 14.25 6.00001 14.25 6C14.816 6.00018 15.3119 6.00174 15.7499 6.01488C15.75 6.00993 15.75 6.00497 15.75 6V5C15.75 2.92893 14.0711 1.25 12 1.25C9.92893 1.25 8.25 2.92893 8.25 5V6C8.25 6.00498 8.25005 6.00995 8.25015 6.01491C8.68814 6.00175 9.18397 6.00021 9.75 6.00002C9.75 6.00002 9.75 6.00003 9.75 6.00002V5Z" fill="#00d5ff"></path> <path d="M15.5857 11.9685C15.8444 11.6451 15.792 11.1731 15.4685 10.9144C15.1451 10.6556 14.6731 10.7081 14.4143 11.0315L10.9375 15.3769L9.53033 13.9697C9.23744 13.6768 8.76256 13.6768 8.46967 13.9697C8.17678 14.2626 8.17678 14.7375 8.46967 15.0304L10.4697 17.0304C10.6205 17.1812 10.8285 17.2607 11.0415 17.2489C11.2545 17.2371 11.4524 17.1351 11.5857 16.9685L15.5857 11.9685Z" fill="#00d5ff"></path> </g></svg>
